<svg width="58" height="77" viewBox="0 0 58 77" fill="none" xmlns="http://www.w3.org/2000/svg">
<path d="M37.6498 2.19934C22.5791 -2.32903 6.69089 6.21722 2.16251 21.2879C1.41388 23.7817 0.873354 26.3333 0.546506 28.9164C0.0726217 32.8352 0.053412 36.7956 0.489257 40.7188C2.29102 53.7493 7.38421 66.1056 15.2879 76.621C15.2879 76.621 48.2334 65.9916 56.7383 37.6866C58.9129 30.4494 58.1235 22.6448 54.5437 15.9896C50.9639 9.33445 44.887 4.37394 37.6498 2.19934ZM25.7234 41.8909C17.5031 39.4209 12.8415 30.7546 15.3115 22.5342C17.7815 14.3138 26.4478 9.65221 34.6682 12.1222C42.8886 14.5922 47.5502 23.2585 45.0801 31.4789C43.894 35.4265 41.1883 38.7412 37.5582 40.6938C33.9281 42.6464 29.671 43.077 25.7234 41.8909Z" fill="#E64C3C"/>
</svg>
